<svg height="455pt" viewBox="0 -39 455.14906 455" width="455pt" xmlns="http://www.w3.org/2000/svg"><path d="m449.976562 120.019531c-3.792968-4.179687-9.171874-6.5625-14.816406-6.566406h-5.925781v-16.257813c-.03125-27.601562-22.398437-49.96875-50-50h-180.601563c-4.761718 0-9.363281-1.699218-12.984374-4.789062l-38.367188-32.753906c-7.242188-6.179688-16.449219-9.574219-25.972656-9.5781252h-43.753906c-27.601563.0312502-49.96875 22.3984372-50 50.0000002v63.375h-7.558594c-5.644532.003906-11.023438 2.386719-14.816406 6.570312-3.789063 4.183594-5.636719 9.769531-5.0820318 15.386719l19.3984378 197.382812c2.441406 25.632813 24.011718 45.1875 49.761718 45.105469h316.636719c25.75.082031 47.320313-19.472656 49.757813-45.105469l19.402344-197.382812c.546874-5.617188-1.296876-11.203125-5.078126-15.386719zm-402.421874-69.945312c.019531-16.558594 13.441406-29.980469 30-30h43.753906c4.761718.003906 9.363281 1.699219 12.984375 4.789062l38.367187 32.753907c7.246094 6.179687 16.453125 9.578124 25.972656 9.578124h180.601563c16.558594.019532 29.980469 13.441407 30 30v16.257813h-361.679687zm368.195312 280.761719c-1.464844 15.378906-14.40625 27.109374-29.855469 27.0625h-316.636719c-15.449218.046874-28.390624-11.683594-29.855468-27.0625l-19.398438-197.382813-9.953125.976563 9.953125-.976563h415.148438zm0 0"/></svg>